<svg height="812.20611" viewBox="0 0 1131 812.20611" width="1131" xmlns="http://www.w3.org/2000/svg"><path d="m689.32824 51.26718h80.80153v30.0916h-80.80153z" fill="#ffc107" opacity=".3"/><path d="m823.62595 0h80.80153v30.0916h-80.80153z" fill="#ffc107" opacity=".3"/><path d="m829.19847 93.06107h80.80153v30.0916h-80.80153z" fill="#ffc107" opacity=".3"/><path d="m570.63359 127.61069h80.80153v30.0916h-80.80153z" fill="#ffc107" opacity=".3"/><path d="m545 251.32061h80.80153v30.0916h-80.80153z" fill="#ffc107" opacity=".3"/><path d="m667.03817 248.53435h80.80153v30.0916h-80.80153z" fill="#ffc107" opacity=".3"/><path d="m823.626 14.856-53.496 50.76 59.068 42.491" fill="none" stroke="#3f3d56" stroke-miterlimit="10"/><path d="m689.32824 65.61641-78.29389 61.99428" fill="none" stroke="#3f3d56" stroke-miterlimit="10"/><path d="m585.401 251.297 25.633-93.595 96.405 90.832" fill="none" stroke="#3f3d56" stroke-miterlimit="10"/><path d="m144.32824 82.26718h80.80153v30.0916h-80.80153z" fill="#ffc107" opacity=".3"/><path d="m278.62595 31h80.80153v30.0916h-80.80153z" fill="#ffc107" opacity=".3"/><path d="m284.19847 124.06107h80.80153v30.0916h-80.80153z" fill="#ffc107" opacity=".3"/><path d="m25.63359 158.61069h80.80153v30.0916h-80.80153z" fill="#ffc107" opacity=".3"/><path d="m0 282.32061h80.80153v30.0916h-80.80153z" fill="#ffc107" opacity=".3"/><path d="m122.03817 279.53435h80.80153v30.0916h-80.80153z" fill="#ffc107" opacity=".3"/><path d="m278.626 45.856-53.496 50.76 59.068 42.491" fill="none" stroke="#3f3d56" stroke-miterlimit="10"/><path d="m144.32824 96.61641-78.29389 61.99428" fill="none" stroke="#3f3d56" stroke-miterlimit="10"/><path d="m40.401 282.297 25.633-93.595 96.405 90.832" fill="none" stroke="#3f3d56" stroke-miterlimit="10"/><path d="m365 139.10687h91.63359" fill="none" stroke="#3f3d56" stroke-miterlimit="10"/><path d="m415.5 123.70611h95v30h-95z" fill="#ffc107"/><path d="m510.62322 138.70611h60.01037" fill="none" stroke="#3f3d56" stroke-miterlimit="10"/><path d="m415.04486 138.70611-55.61738-92.84971" fill="none" stroke="#3f3d56" stroke-miterlimit="10"/><ellipse cx="691" cy="714.20611" fill="#f2f2f2" rx="440" ry="98"/><path d="m894.984 391.611-42.906 214.971h-9.288l-1.022-1.588-2.959-4.604 37.155-200.818 5.64-2.362z" fill="#47465a"/><path d="m881.604 397.21-39.836 207.784-2.959-4.604 37.155-200.818z" opacity=".1"/><path d="m959.564 684.432-11.031 3.556-2.681.867-3.539-7.962-60.709-276.933 6.312-1.415 13.261-2.973z" fill="#47465a"/><path d="m948.533 687.988-2.681.867-3.539-7.962-60.709-276.933 6.312-1.415z" opacity=".1"/><path d="m433.636 391.611-9.731 278.666-11.152 2.477-.791.177-3.097-5.75 6.193-272.917 5.958-.849z" fill="#47465a"/><path d="m421.016 393.415-8.263 279.339-.791.177-3.097-5.75 6.193-272.917z" opacity=".1"/><path d="m491.581 768.917-11.536 1.99-1.292.221-3.538-7.519-56.176-364.037 1.619-.491 8.555-2.605z" fill="#47465a"/><path d="m480.045 770.907-1.292.221-3.538-7.519-56.176-364.037 1.619-.491z" opacity=".1"/><path d="m770.24611 412.94872 42.95118 54.88207a13.9279 13.9279 0 0 0 12.58842 5.24947l176.3179-20.64984a13.92791 13.92791 0 0 0 12.30779-13.83336v-40.6875z" fill="#7a799c" transform="translate(-34.5 -43.89695)"/><path d="m880.3875 377.89835h11.94287a0 0 0 0 1 0 0v17.23649a4.4376 4.4376 0 0 1 -4.4376 4.4376h-3.06767a4.4376 4.4376 0 0 1 -4.4376-4.4376v-17.23649a0 0 0 0 1 0 0z" fill="#47465a"/><path d="m453.539 447.89267 42.95118 54.88206a13.92791 13.92791 0 0 0 12.58842 5.24948l176.3179-20.64984a13.92793 13.92793 0 0 0 12.30775-13.83337v-40.6875z" fill="#7a799c" transform="translate(-34.5 -43.89695)"/><path d="m563.68035 412.84229h11.94287a0 0 0 0 1 0 0v17.23649a4.4376 4.4376 0 0 1 -4.4376 4.4376h-3.06762a4.4376 4.4376 0 0 1 -4.4376-4.4376v-17.23649a0 0 0 0 1 -.00005 0z" fill="#47465a"/><path d="m502.88475 475.68812 524.45934-61.09027a7.71254 7.71254 0 0 0 2.57751-14.54866l-93.81678-47.18187a108.58678 108.58678 0 0 0 -59.80247-11.01708l-465.94185 47.50956a8.91843 8.91843 0 0 0 -5.45875 15.09495l54.25911 55.66844a52.67339 52.67339 0 0 0 43.72389 15.56493z" fill="#47465a" transform="translate(-34.5 -43.89695)"/><path d="m1085.04368 406.31845-5.61-3.101s-6.05628 4.45811-10.99 23.23965 9.22074.20375 9.22074.20375l6.1926-12.82752z" fill="#47465a" transform="translate(-34.5 -43.89695)"/><path d="m1025.02728 578.37955s-5.75027 26.982-8.40424 34.50162c-1.30042 3.68018-7.58157 7.04629-14.54371 9.62064a97.37869 97.37869 0 0 1 -19.07325 4.9762c-7.51958.88466-103.94718-14.15451-150.834-24.32806-31.58664-6.85167-35.66943-14.71185-34.97051-19.1086a6.37978 6.37978 0 0 1 1.79588-3.45015s46.44448-31.40532 62.81063-46.44449 48.65613-3.0963 84.0424 3.0963 79.1768 41.13654 79.1768 41.13654z" fill="#47465a" transform="translate(-34.5 -43.89695)"/><path d="m1079.43367 403.2175s21.6741 14.15451-51.31009 43.34818c0 0-39.669 22.36656-34.50509 114.50318a25.26971 25.26971 0 0 0 3.673 11.702c7.5302 12.3852 23.66634 43.73743-3.22723 47.62992v7.07722s48.65613-24.32806 53.96407-45.1175 23.00107-136.23715 31.84764-146.853 14.59687-27.42439-.4423-32.29z" fill="#47465a" transform="translate(-34.5 -43.89695)"/><path d="m1002.07933 622.50181a97.37869 97.37869 0 0 1 -19.07325 4.9762c-7.51958.88466-103.94718-14.15451-150.834-24.32806-31.58664-6.85167-35.66943-14.71185-34.97051-19.1086 20.76287 7.09937 88.18264 29.63158 112.378 31.49379 28.75135 2.21164 83.67966 8.36 87.842 4.18 1.6012-1.61007 3.24222.08845 4.65776 2.78667z" opacity=".1" transform="translate(-34.5 -43.89695)"/><path d="m749.45667 806.621 42.0212-191.97054s7.51959-20.3471 24.77039-19.46245l15.92383 7.96199s-26.53971-6.1926-32.29 14.1545-42.46351 189.3165-42.46351 189.3165z" fill="#47465a" transform="translate(-34.5 -43.89695)"/><path d="m815.808 675.143 16.808-117.217h7.52l-17.251 117.217z" fill="#47465a"/><path d="m1011.3151 833.60305-15.92383-183.124s0-15.4815 7.96192-23.00108 33.66494-28.97011 33.66494-28.97011 6.58694-1.55055 11.89488 13.48861 42.0212 165.43083 42.0212 165.43083l-7.07725 3.0963-45.55983-173.3927-31.40532 29.636s-6.19259 11.05821-3.0963 21.23176 14.59684 175.60438 14.59684 175.60438z" fill="#47465a" transform="translate(-34.5 -43.89695)"/><path d="m927.717 579.158 39.809 11.5 8.847-8.404-23.001-3.096z" fill="#47465a"/><path d="m608.31275 300.20117 6.45492 96.82373 141.10276-13.71218-5.61479-94.64939a9.51952 9.51952 0 0 0 -10.30071-8.9223l-122.94163 10.34088a9.51953 9.51953 0 0 0 -8.70055 10.11926z" fill="#7a799c" transform="translate(-34.5 -43.89695)"/><path d="m768.7 367.282-140.661 15.345-5.308.579-41.136-26.539v-5.751l139.775-12.588z" fill="#7a799c"/><path d="m628.039 382.627-5.308.579-41.136-26.539v-5.149z" opacity=".1"/><path d="m583.364 255.373 4.866 86.254 123.852-11.5-4.424-84.043z" fill="#9493b6"/><path d="m657.233 365.513 15.039 10.174 45.56-4.424-15.482-9.731z" opacity=".1"/><path d="m595.749 353.128 19.02 14.154 121.641-11.5-21.674-14.155z" fill="#9493b6"/><path d="m811.60543 222.4199h89.79267v89.79267h-89.79267z" fill="#ff6584"/><path d="m811.60543 222.4199h89.79267v89.79267h-89.79267z" opacity=".1"/><g transform="translate(-34.5 -43.89695)"><path d="m877.029 307.87069s12.66681 34.30595 0 40.63936 45.38941 0 45.38941 0l16.3613-13.1946s-36.94487-10.55568-31.667-34.83373-30.08371 7.38897-30.08371 7.38897z" fill="#fbbebe"/><path d="m877.029 307.87069s12.66681 34.30595 0 40.63936 45.38941 0 45.38941 0l16.3613-13.1946s-36.94487-10.55568-31.667-34.83373-30.08371 7.38897-30.08371 7.38897z" opacity=".1"/><path d="m773.05563 651.98574s47.50054 67.02855 39.58378 85.501-3.69448 30.08368-19.528 36.41708-20.05578 17.94465-6.3334 17.41687 31.667-4.22227 34.30594-8.97232 8.97233-27.44476 17.94465-30.61147 25.8614-15.30575 13.7224-30.08369-42.7254-69.21048-40.36292-74.71681-39.33245 5.04934-39.33245 5.04934z" fill="#fbbebe"/><path d="m872.279 519.512s-98.16779 6.33341-123.50142 30.08368 22.16692 112.418 27.44476 113.47352 46.445-3.1667 44.86162-14.77794-29.55589-59.11179-29.55589-59.11179 36.41708-13.1946 56.47287-16.3613 42.22271-17.94465 42.22271-17.94465z" fill="#9493b6"/><path d="m827.41736 504.73406s1.58335 58.584 16.3613 60.69514 0-44.86163 0-44.86163l-.52778-17.94465z" fill="#fbbebe"/><path d="m872.279 351.149s-27.44476-7.91676-32.7226 13.19459-6.86119 93.94552-6.86119 93.94552l-9.50011 58.05622s17.41687-5.27784 21.11135-2.63892l22.16692-27.97254z" fill="#ffc107"/><path d="m872.279 351.149s-27.44476-7.91676-32.7226 13.19459-6.86119 93.94552-6.86119 93.94552l-9.50011 58.05622s17.41687-5.27784 21.11135-2.63892l22.16692-27.97254z" opacity=".1"/><path d="m909.77932 663.22549s18.44475 36.2608 29.52821 35.733 21.63914-7.389 26.917 14.25016-1.05556 15.83352 5.27784 28.50033 7.389 34.83373-4.75 40.11157-23.22249 5.80562-23.75027 0 10.55567-5.80562-2.11114-26.38919-39.58378-58.05622-50.66724-61.75071 19.5556-30.45516 19.5556-30.45516z" fill="#fbbebe"/><path d="m957.78 497.87287s38.00044 63.33406 13.1946 81.80649-98.69557 53.834-98.69557 53.834 39.58378 26.917 41.69492 35.8893-19.00022 33.25038-26.38919 33.77816-29.02811-24.27805-52.2506-30.61146-37.47265-51.72281-12.139-68.6119 49.0839-44.86162 49.0839-44.86162l-7.3847-40.63369z" fill="#9493b6"/><path d="m924.83989 286.664c0 22.44449-22.99133 40.99863-45.43582 40.99863a40.63935 40.63935 0 1 1 0-81.27871c22.44449-.00004 45.43582 17.83554 45.43582 40.28008z" fill="#fbbebe"/><path d="m889.69585 345.34334s36.41708-15.83351 36.41708-17.94465 21.11136 4.75006 25.86141 8.97233 7.389 3.69449 10.55568 12.139-15.83352 87.08433-15.83352 87.08433 10.55568 60.69514 16.3613 66.50076-46.9728 14.25019-46.9728 14.25019-34.83373 6.33341-40.63935 8.97233-16.3613 6.3334-14.25016 0 11.08346-11.08346-4.22228-19.00022c0 0 5.27784-25.86141 0-37.47265s-29.55589-53.834-10.02789-84.44541 28.50033-41.69493 28.50033-41.69493 6.86123 5.80563 14.2502 2.63892z" fill="#ffc107"/><path d="m901.3071 489.42833s-41.1671 18.2588-53.5701 19.94897-49.87557 11.19027-29.292 19.63481 51.72281-4.22227 51.72281-4.22227l43.80606-18.47243z" fill="#fbbebe"/><path d="m945.62933 343.72433s15.20178-7.35331 19.424 18.5081 19.00022 107.66789 0 119.80692-62.80628 31.667-62.80628 31.667-25.8614-17.41686-13.72237-23.75027 41.16713-24.27806 45.3894-30.61146 8.48829-77.027 1.09932-88.63829 10.61593-26.982 10.61593-26.982z" opacity=".1"/><path d="m944.58537 337.42659s21.11135-1.05557 25.33362 24.80584 19.00022 107.66789 0 119.80692-62.80627 31.667-62.80627 31.667-25.86141-17.41686-13.72238-23.75027 41.16714-24.27806 45.38941-30.61146-3.16675-72.30635-10.55568-83.91762 16.3613-38.00041 16.3613-38.00041z" fill="#ffc107"/><path d="m869.39363 218.61184c-6.47937.88179-13.42907 3.252-16.68936 8.92037-1.59532 2.77365-2.11107 6.02743-3.34 8.98173-3.39144 8.15262-11.628 13.02111-17.57449 19.54846-7.7497 8.50671-11.59829 21.32569-7.02776 31.88657 1.76985 4.08952 4.64406 7.59294 6.82374 11.47953 6.081 10.84307 6.40545 23.86541 6.5784 36.29605l.34006 24.4413c.05193 3.73208.09336 7.53953-1.0303 11.09882s-3.63293 6.89273-7.19212 8.01668a18.64007 18.64007 0 0 0 21.70774-7.41277 19.04939 19.04939 0 0 1 -5.82228 16.89942c9.676-2.27871 17.79017-9.31636 22.90211-17.84195s7.4824-18.44239 8.54471-28.32617c.56186-5.22762.75986-10.63308-.8917-15.62468-1.16321-3.51566-3.1921-6.66756-5.1182-9.83032-4.96553-8.15368-9.43689-16.82614-11.03719-26.23773s.00641-19.738 6.11766-27.07224a24.45445 24.45445 0 0 1 19.315-8.85635 21.50289 21.50289 0 0 1 17.9282 10.97538c1.4118 2.65764 3.42145 6.25954 6.28226 5.32575a15.52284 15.52284 0 0 0 1.549-.76054c3.19044-1.45194 6.81442 1.41256 8.22125 4.62315 4.43733 10.12665-3.73777 21.18131-4.58276 32.20513-.786 10.25474 4.93126 19.92613 11.76532 27.612a90.71726 90.71726 0 0 0 44.35273 27.24968 12.44917 12.44917 0 0 1 -6.4337-3.99663 84.47007 84.47007 0 0 0 20.75653-1.74c-7.42625-5.59639-14.90482-11.24044-21.10471-18.17083s-11.1103-15.316-12.44738-24.5182c-1.79441-12.34986 2.80533-25.72347-2.45361-37.04082-4.80791-10.34671-16.73195-16.12851-21.0866-26.674-4.42322-10.71155-7.29082-20.01739-19.00212-24.68049-12.78194-5.08939-26.54035-8.65575-40.35043-6.7763z" fill="#ff6584"/></g></svg>